<?xml version="1.0" standalone="no"?>
<!DOCTYPE svg PUBLIC "-//W3C//DTD SVG 20010904//EN"
 "http://www.w3.org/TR/2001/REC-SVG-20010904/DTD/svg10.dtd">
<svg version="1.0" xmlns="http://www.w3.org/2000/svg"
 width="330.000000pt" height="330.000000pt" viewBox="0 0 330.000000 330.000000"
 preserveAspectRatio="xMidYMid meet">
<metadata>
Created by potrace 1.11, written by Peter Selinger 2001-2013
</metadata>
<g transform="translate(0.000000,330.000000) scale(0.100000,-0.100000)"
fill="#000000" stroke="none">
<path d="M1395 2640 c-3 -5 -3 -10 1 -10 4 0 -1 -10 -12 -22 -10 -12 -13 -18
-5 -13 9 5 5 -5 -7 -22 -12 -17 -22 -36 -22 -42 0 -6 -9 -26 -20 -46 -11 -19
-16 -35 -12 -35 4 0 2 -4 -4 -8 -12 -8 -70 -143 -67 -154 2 -5 0 -8 -5 -8 -4
0 -13 -15 -21 -32 -33 -78 -46 -103 -55 -110 -6 -4 -8 -8 -3 -8 4 0 -4 -22
-18 -50 -14 -27 -24 -52 -23 -55 2 -2 -4 -13 -12 -23 -8 -10 -16 -25 -18 -33
-2 -8 -12 -32 -22 -54 -60 -130 -83 -181 -86 -193 -1 -7 -9 -24 -18 -37 -9
-13 -16 -31 -16 -39 0 -8 -6 -21 -14 -28 -7 -8 -17 -28 -20 -45 -4 -18 -14
-37 -22 -43 -7 -7 -12 -16 -9 -20 3 -5 1 -11 -5 -15 -6 -4 -8 -11 -5 -16 4 -5
1 -9 -4 -9 -6 0 -11 -5 -11 -11 0 -15 -41 -103 -52 -110 -5 -3 -8 -10 -7 -15
3 -17 -13 -54 -24 -54 -6 0 -7 -3 -4 -6 4 -4 0 -19 -8 -33 -17 -32 -69 -144
-70 -151 0 -3 -8 -23 -19 -45 -10 -22 -27 -60 -38 -85 -11 -25 -24 -52 -29
-60 -5 -8 -12 -22 -15 -30 -3 -8 -13 -31 -22 -50 -9 -19 -15 -38 -14 -42 1 -5
-3 -8 -9 -8 -5 0 -8 -4 -4 -9 3 -5 0 -15 -7 -23 -7 -7 -14 -22 -16 -33 -2 -11
-9 -24 -15 -30 -7 -5 -11 -22 -9 -38 l3 -27 235 0 c234 0 235 0 243 23 5 12 9
24 8 27 0 3 10 23 22 45 11 22 21 45 21 52 0 7 4 13 10 13 5 0 7 6 4 14 -3 8
0 17 5 21 6 3 9 11 6 16 -4 5 -2 9 3 9 10 0 25 38 23 54 -1 5 4 13 11 17 7 5
14 16 14 26 1 10 11 40 24 66 l23 48 174 -1 c96 -1 176 0 178 2 2 1 56 1 120
-2 64 -3 118 -4 120 -2 6 6 351 3 367 -3 9 -4 20 -20 23 -36 4 -16 11 -29 16
-29 5 0 8 -3 7 -7 -1 -5 6 -25 15 -47 9 -21 17 -40 17 -42 0 -5 38 -93 51
-116 5 -10 9 -25 9 -33 0 -8 5 -15 10 -15 6 0 9 -3 8 -7 -1 -5 4 -21 11 -38 6
-16 14 -36 16 -43 4 -10 60 -12 255 -12 137 1 250 4 250 7 0 6 -20 51 -66 148
-67 144 -87 190 -85 199 1 5 -2 12 -6 15 -11 7 -93 185 -93 200 0 6 -4 11 -10
11 -5 0 -10 7 -10 15 0 8 -9 30 -20 50 -11 19 -17 35 -15 35 3 0 -5 19 -18 43
-13 23 -29 59 -36 80 -7 20 -16 37 -20 37 -4 0 -8 6 -8 13 0 6 -14 41 -32 76
-17 35 -32 71 -33 80 -2 9 -5 18 -9 21 -8 8 -43 83 -45 100 -2 8 -8 16 -13 18
-6 2 -11 10 -11 18 0 8 -8 29 -17 47 -9 18 -18 38 -19 46 -2 8 -6 17 -11 20
-4 3 -9 13 -11 21 -2 8 -8 17 -13 18 -5 2 -9 12 -9 22 0 10 -13 45 -30 78 -16
34 -30 65 -30 71 0 5 -4 11 -10 13 -5 2 -11 12 -13 23 -2 11 -13 39 -25 63
-12 23 -20 42 -16 42 3 0 -2 7 -11 16 -9 9 -14 23 -11 31 3 8 1 11 -4 8 -6 -3
-10 0 -10 8 0 8 -18 51 -40 96 -22 45 -40 88 -40 95 0 8 -5 16 -11 18 -5 2
-11 10 -12 18 -2 8 -10 30 -20 49 -9 19 -17 40 -17 46 0 7 -7 16 -16 19 -27
10 -472 7 -479 -4z m260 -480 c-4 -6 -1 -17 5 -25 7 -8 9 -15 5 -15 -4 0 0
-11 9 -25 9 -13 16 -31 16 -40 0 -8 5 -15 10 -15 6 0 9 -3 8 -7 -1 -5 4 -24
11 -43 8 -19 13 -38 12 -42 0 -5 4 -8 11 -8 6 0 8 -3 5 -6 -3 -4 -1 -16 5 -28
7 -11 13 -23 13 -26 1 -3 10 -23 20 -45 21 -46 19 -41 29 -77 5 -16 13 -28 19
-28 6 0 8 -3 4 -6 -3 -4 0 -19 9 -35 8 -16 15 -32 15 -36 1 -5 6 -17 12 -28 6
-11 12 -29 14 -40 2 -11 8 -21 13 -23 6 -2 10 -10 10 -18 0 -8 4 -22 9 -32 36
-67 48 -107 35 -112 -20 -7 -632 -5 -640 3 -4 3 2 23 12 44 10 21 19 44 20 51
1 7 12 31 23 52 11 22 18 40 16 40 -3 0 2 11 11 25 9 14 12 25 8 25 -5 0 -3 4
4 8 7 5 15 19 17 32 2 13 8 26 12 29 5 3 9 13 11 21 2 8 10 31 19 50 9 19 16
41 16 48 0 6 4 12 9 12 5 0 6 5 3 10 -3 6 -2 10 2 10 5 0 15 20 22 45 7 25 17
45 22 45 5 0 8 3 7 8 -3 15 15 62 24 62 5 0 7 4 4 9 -3 5 3 26 14 48 11 21 24
50 30 66 5 15 17 27 25 27 9 0 13 -5 10 -10z"/>
</g>
</svg>
